# xmcd
#
# Track frame offsets:
#	150
#	14601
#	26657
#	40130
#	50512
#	60092
#	71672
#	93298
#	111802
#	130409
#	149168
#	160481
#	171455
#	183697
#	196391
#	207754
#
# Disc length: 2976 seconds
#
# Revision: 1
# Processed by: cddbd v1.5.1PL0 Copyright (c) Steve Scherf et al.
# Submitted via: audiograbber 1.82.02
#
DISCID=f00b9e10
DTITLE=Various Artist - Classic Country - Australian Style Vol 3
DYEAR=1900
DGENRE=Country
TTITLE0=Johnny Chester - She's My Kind Of Women
TTITLE1=Reg Lindsay - You're The One
TTITLE2=Nev Nicholls - The Lights On The Hill
TTITLE3=Bill And Boyd - Put Another Log On The Fire
TTITLE4=Judy Stone - Everybody's Reaching Out For Someone
TTITLE5=Tex Williams - A Fool Such As I
TTITLE6=Bluestone - The Closer You Get
TTITLE7=Lee Conway - Neve Be Anyone Else But You
TTITLE8=Reg Lindsay - Coward Of The Country
TTITLE9=Bill And Boyd - Santa Never Made It Into Darwin
TTITLE10=Judy Stone - Take Me Home Country Roads
TTITLE11=Nev Nicholls - Six Days On The Road
TTITLE12=Tex Williams - Please Release Me
TTITLE13=Bluestone - Wind And Rain
TTITLE14=Johnny Chester - Kawliga
TTITLE15=Cash Backman - My Girl Bill
EXTD=
EXTT0=
EXTT1=
EXTT2=
EXTT3=
EXTT4=
EXTT5=
EXTT6=
EXTT7=
EXTT8=
EXTT9=
EXTT10=
EXTT11=
EXTT12=
EXTT13=
EXTT14=
EXTT15=
PLAYORDER=
